<svg width="181" height="307" viewBox="0 0 181 307" fill="none" xmlns="http://www.w3.org/2000/svg">
<path fill-rule="evenodd" clip-rule="evenodd" d="M17.6901 0H163.156C172.886 0 180.848 7.96177 180.848 17.6918V288.58C180.848 298.31 172.886 306.27 163.156 306.27H17.6901C7.96 306.27 0 298.31 0 288.58V17.6918C0 7.96177 7.96 0 17.6901 0Z" fill="black"/>
<path fill-rule="evenodd" clip-rule="evenodd" d="M17.69 6.09619H163.156C166.348 6.09619 169.249 7.39896 171.348 9.50003C173.449 11.6011 174.754 14.5005 174.754 17.6919V288.58C174.754 291.771 173.449 294.671 171.348 296.772C169.249 298.873 166.348 300.176 163.156 300.176H17.69C14.4986 300.176 11.5992 298.873 9.49808 296.772C7.39701 294.671 6.09424 291.771 6.09424 288.58V17.6919C6.09424 14.5005 7.39701 11.6011 9.49808 9.50003C11.5992 7.39896 14.4986 6.09619 17.69 6.09619ZM163.156 11.3214H17.69C15.9412 11.3214 14.3499 12.0401 13.1941 13.1959C12.0382 14.3518 11.3195 15.9431 11.3195 17.6919V288.58C11.3195 290.329 12.0382 291.92 13.1941 293.076C14.3499 294.232 15.9412 294.95 17.69 294.95H163.156C164.905 294.95 166.498 294.232 167.652 293.076C168.808 291.92 169.527 290.329 169.527 288.58V17.6919C169.527 15.9431 168.808 14.3518 167.652 13.1959C166.498 12.0401 164.905 11.3214 163.156 11.3214Z" fill="white"/>
<path fill-rule="evenodd" clip-rule="evenodd" d="M157.145 96.6337V99.48V102.326V105.173V108.019V110.865V113.711V116.558V119.404V122.25V125.096V127.943V130.789V133.635V136.482V139.328V142.174V145.02V147.867V150.713V153.559V156.405C157.145 174.756 149.638 191.435 137.545 203.528C125.454 215.621 108.773 223.126 90.4242 223.126C72.0738 223.126 55.3927 215.621 43.3014 203.528C31.2083 191.435 23.7031 174.756 23.7031 156.405V153.559V150.713V147.867V145.02V142.174V139.328V136.482V133.635V130.789V127.943V125.096V122.25V119.404V116.558V113.711V110.865V108.019V105.173V102.326V99.48V96.6337V93.7874C23.7031 75.4389 31.2083 58.7577 43.3014 46.6646C55.3927 34.5733 72.0738 27.0664 90.4242 27.0664C108.773 27.0664 125.454 34.5733 137.545 46.6646C149.638 58.7577 157.145 75.4389 157.145 93.7874V96.6337ZM85.9282 34.4087H94.9184C112.031 34.4087 127.589 41.4075 138.866 52.6864C141.974 55.7929 144.755 59.2251 147.155 62.9245C144.172 57.4798 140.429 52.5023 136.067 48.1426C124.353 36.4283 108.196 29.1569 90.4242 29.1569C72.6509 29.1569 56.4937 36.4283 44.7794 48.1426C40.4197 52.5023 36.6742 57.4798 33.6917 62.9245C36.0919 59.2251 38.8744 55.7929 41.9809 52.6864C53.258 41.4075 68.8152 34.4087 85.9282 34.4087ZM147.155 187.27C144.755 190.968 141.972 194.4 138.866 197.506C127.589 208.785 112.031 215.784 94.9184 215.784H85.9282C68.8152 215.784 53.258 208.785 41.9809 197.506C38.8744 194.4 36.0937 190.968 33.6917 187.27C36.676 192.715 40.4197 197.691 44.7794 202.05C56.4937 213.765 72.6509 221.036 90.4242 221.036C108.196 221.036 124.353 213.765 136.067 202.05C140.427 197.691 144.172 192.715 147.155 187.27ZM40.9738 107.826H139.873C144.624 107.826 148.943 109.768 152.072 112.897C152.547 113.371 152.992 113.872 153.409 114.398C152.414 112.131 151.003 110.084 149.274 108.355C145.707 104.788 140.788 102.574 135.377 102.574H45.4697C40.0586 102.574 35.1396 104.788 31.5747 108.355C29.8453 110.084 28.4328 112.131 27.438 114.398C27.8557 113.872 28.3012 113.371 28.7744 112.897C31.9057 109.768 36.2229 107.826 40.9738 107.826ZM153.409 135.795C152.992 136.32 152.547 136.82 152.072 137.296C148.943 140.425 144.624 142.367 139.873 142.367H40.9738C36.2229 142.367 31.9057 140.425 28.7744 137.296C28.3012 136.82 27.8557 136.32 27.438 135.795C28.4328 138.06 29.8453 140.108 31.5747 141.838C35.1396 145.404 40.0586 147.619 45.4697 147.619H135.377C140.788 147.619 145.707 145.404 149.274 141.838C151.003 140.108 152.414 138.06 153.409 135.795ZM139.873 109.916H40.9738C36.7999 109.916 33.0049 111.624 30.2542 114.375C27.5017 117.128 25.7936 120.923 25.7936 125.096C25.7936 129.27 27.5017 133.065 30.2542 135.818C33.0049 138.568 36.7999 140.277 40.9738 140.277H139.873C144.047 140.277 147.842 138.568 150.594 135.818C153.345 133.065 155.053 129.27 155.053 125.096C155.053 120.923 153.345 117.128 150.594 114.375C147.842 111.624 144.047 109.916 139.873 109.916ZM45.4697 100.484H135.377C141.365 100.484 146.806 102.932 150.752 106.877C151.488 107.613 152.169 108.399 152.794 109.233C151.591 106.656 149.943 104.323 147.953 102.333C143.571 97.9524 137.529 95.2318 130.883 95.2318H49.964C43.3191 95.2318 37.2761 97.9524 32.8951 102.333C30.9038 104.323 29.2577 106.656 28.0522 109.233C28.6788 108.399 29.3603 107.613 30.0966 106.877C34.0404 102.932 39.4833 100.484 45.4697 100.484ZM152.796 140.96C152.17 141.794 151.488 142.579 150.752 143.316C146.806 147.261 141.365 149.709 135.377 149.709H45.4697C39.4833 149.709 34.0404 147.261 30.0966 143.316C29.3591 142.579 28.6777 141.794 28.0522 140.96C29.2577 143.537 30.9038 145.87 32.8951 147.86C37.2761 152.24 43.3191 154.961 49.964 154.961H130.883C137.529 154.961 143.571 152.24 147.953 147.86C149.943 145.87 151.591 143.537 152.796 140.96ZM49.964 93.1414H130.883C138.106 93.1414 144.672 96.0956 149.431 100.855C150.428 101.854 151.347 102.93 152.175 104.077C150.766 101.186 148.884 98.5649 146.633 96.3116C141.436 91.1164 134.269 87.8914 126.387 87.8914H54.4599C46.5778 87.8914 39.4108 91.1164 34.2156 96.3116C31.9641 98.5631 30.0825 101.186 28.6718 104.075C29.5019 102.93 30.4188 101.854 31.4171 100.855C36.1751 96.0956 42.7421 93.1414 49.964 93.1414ZM152.175 146.116C151.347 147.263 150.428 148.339 149.431 149.338C144.672 154.097 138.106 157.052 130.883 157.052H49.964C42.7421 157.052 36.1751 154.097 31.4171 149.338C30.4188 148.339 29.5019 147.263 28.6735 146.118C30.0825 149.007 31.9641 151.628 34.2156 153.88C39.4108 159.076 46.5778 162.302 54.4599 162.302H126.387C134.269 162.302 141.436 159.076 146.633 153.88C148.884 151.628 150.766 149.007 152.175 146.116ZM54.4599 85.7991H126.387C134.846 85.7991 142.537 89.2596 148.111 94.8336C149.371 96.0956 150.523 97.4639 151.552 98.926C149.941 95.7186 147.826 92.805 145.312 90.2915C139.301 84.2804 131.01 80.5491 121.891 80.5491H58.9559C49.8365 80.5491 41.5472 84.2804 35.5361 90.2915C33.0208 92.805 30.9056 95.7204 29.2948 98.926C30.325 97.4639 31.4755 96.0956 32.7376 94.8336C38.3115 89.2596 46.0007 85.7991 54.4599 85.7991ZM151.552 151.267C150.523 152.729 149.371 154.097 148.111 155.359C142.537 160.933 134.846 164.392 126.387 164.392H54.4599C46.0007 164.392 38.3115 160.933 32.7376 155.359C31.4755 154.097 30.3232 152.729 29.2948 151.267C30.9056 154.473 33.0208 157.388 35.5361 159.901C41.5472 165.913 49.8365 169.644 58.9559 169.644H121.891C131.01 169.644 139.301 165.913 145.312 159.901C147.826 157.386 149.941 154.473 151.552 151.267ZM58.9559 78.4587H121.891C131.587 78.4587 140.4 82.4236 146.79 88.8136C148.314 90.3376 149.7 91.9997 150.929 93.7804C149.118 90.2561 146.769 87.0488 143.992 84.2698C137.165 77.4444 127.751 73.2068 117.397 73.2068H63.4501C53.097 73.2068 43.6819 77.4444 36.8565 84.2698C34.0775 87.0488 31.7286 90.2561 29.9196 93.7804C31.1463 92.0014 32.5322 90.3376 34.058 88.8136C40.4462 82.4236 49.2594 78.4587 58.9559 78.4587ZM150.927 156.413C149.7 158.193 148.314 159.855 146.79 161.379C140.4 167.769 131.587 171.734 121.891 171.734H58.9559C49.2594 171.734 40.4462 167.769 34.058 161.379C32.5322 159.855 31.1463 158.193 29.9196 156.413C31.7286 159.939 34.0775 163.144 36.8565 165.923C43.6819 172.749 53.097 176.986 63.4501 176.986H117.397C127.751 176.986 137.165 172.749 143.992 165.923C146.769 163.144 149.118 159.939 150.927 156.413ZM63.4501 71.1164H117.397C128.329 71.1164 138.266 75.5876 145.47 82.7918C147.256 84.5778 148.874 86.5319 150.297 88.6295C148.291 84.7884 145.711 81.289 142.671 78.248C135.03 70.6084 124.491 65.8663 112.901 65.8663H67.9461C56.3557 65.8663 45.8166 70.6084 38.177 78.248C35.136 81.289 32.5553 84.7884 30.5498 88.6295C31.9729 86.5337 33.5907 84.5778 35.3785 82.7918C42.5809 75.5876 52.5199 71.1164 63.4501 71.1164ZM150.299 161.563C148.874 163.659 147.256 165.615 145.47 167.401C138.266 174.605 128.329 179.077 117.397 179.077H63.4501C52.5199 179.077 42.5809 174.605 35.3785 167.401C33.5925 165.615 31.9729 163.661 30.5498 161.565C32.557 165.406 35.136 168.904 38.177 171.945C45.8166 179.585 56.3557 184.327 67.9461 184.327H112.901C124.491 184.327 135.03 179.585 142.671 171.945C145.711 168.904 148.291 165.405 150.299 161.563ZM67.9461 63.7742C55.7786 63.7742 44.7175 68.7516 36.6991 76.77C34.6458 78.8233 32.7942 81.0748 31.1729 83.4927C33.3748 79.3295 36.191 75.5327 39.4975 72.228C47.9513 63.7723 59.6143 58.5241 72.442 58.5241H108.405C121.232 58.5241 132.895 63.7723 141.351 72.228C144.656 75.5327 147.472 79.3295 149.676 83.4927C148.054 81.0748 146.201 78.8233 144.149 76.77C136.131 68.7516 125.068 63.7742 112.901 63.7742H67.9461ZM149.674 166.7C148.052 169.118 146.201 171.37 144.148 173.423C136.129 181.441 125.068 186.419 112.901 186.419H67.9461C55.7786 186.419 44.7175 181.441 36.6991 173.423C34.6458 171.37 32.7942 169.118 31.1729 166.698C33.3748 170.863 36.191 174.66 39.4975 177.965C47.9513 186.421 59.6143 191.669 72.442 191.669H108.405C121.232 191.669 132.895 186.421 141.349 177.965C144.656 174.66 147.47 170.863 149.674 166.7ZM72.442 56.4336C59.0373 56.4336 46.8522 61.9156 38.0195 70.75C35.7043 73.0635 33.6209 75.607 31.8066 78.3436C34.205 73.8618 37.2495 69.7729 40.8179 66.2062C50.0878 56.9364 62.8731 51.1818 76.9363 51.1818H103.91C117.974 51.1818 130.759 56.9364 140.029 66.2062C143.597 69.7729 146.642 73.8618 149.04 78.3436C147.226 75.607 145.142 73.0635 142.827 70.75C133.994 61.9156 121.809 56.4336 108.405 56.4336H72.442ZM149.042 171.849C147.226 174.586 145.142 177.129 142.829 179.443C133.996 188.277 121.811 193.759 108.406 193.759H72.442C59.0391 193.759 46.8539 188.277 38.0195 179.443C35.706 177.129 33.6226 174.586 31.8066 171.851C34.205 176.331 37.2512 180.42 40.8179 183.987C50.0878 193.257 62.8748 199.011 76.938 199.011H103.91C117.975 199.011 130.761 193.257 140.03 183.987C143.597 180.42 146.643 176.331 149.042 171.849ZM76.938 49.0914C62.2977 49.0914 48.9886 55.0795 39.34 64.7282C36.7645 67.3054 34.4492 70.1429 32.4384 73.1962C35.0316 68.3976 38.3098 64.0149 42.1385 60.1844C52.2243 50.1004 66.1336 43.8396 81.434 43.8396H99.4162C114.715 43.8396 128.626 50.1004 138.71 60.1844C142.54 64.0149 145.819 68.3976 148.412 73.198C146.401 70.1429 144.086 67.3054 141.508 64.7282C131.86 55.0795 118.552 49.0914 103.91 49.0914H76.938ZM148.41 176.997C146.401 180.052 144.086 182.889 141.508 185.465C131.862 195.113 118.552 201.102 103.91 201.102H76.938C62.2977 201.102 48.9886 195.113 39.34 185.465C36.7645 182.889 34.4493 180.052 32.4403 176.997C35.0334 181.797 38.3098 186.178 42.1402 190.008C52.2243 200.093 66.1336 206.353 81.434 206.353H99.4162C114.715 206.353 128.626 200.093 138.71 190.008C142.54 186.178 145.817 181.797 148.41 176.997ZM81.434 41.7491C65.5565 41.7491 51.1233 48.2435 40.6622 58.7064C37.8177 61.5509 35.2671 64.6892 33.0598 68.0701C35.8494 62.944 39.363 58.2621 43.4607 54.1644C54.359 43.2643 69.394 36.4991 85.93 36.4991H94.9202C111.456 36.4991 126.489 43.2643 137.389 54.1644C141.487 58.2604 144.999 62.9422 147.789 68.0683C145.581 64.6875 143.032 61.5509 140.188 58.7064C129.725 48.2435 115.292 41.7491 99.4162 41.7491H81.434ZM147.789 182.125C145.581 185.504 143.032 188.642 140.188 191.486C129.725 201.949 115.292 208.444 99.4162 208.444H81.434C65.5565 208.444 51.1233 201.949 40.6605 191.486C37.816 188.642 35.2671 185.504 33.0598 182.123C35.8494 187.249 39.363 191.931 43.4589 196.029C54.359 206.929 69.3922 213.694 85.9282 213.694H94.9202C111.456 213.694 126.489 206.929 137.389 196.029C141.487 191.931 144.999 187.249 147.789 182.125Z" fill="white"/>
<path fill-rule="evenodd" clip-rule="evenodd" d="M25 281H155.137V283.09H25V281Z" fill="white"/>
</svg>
