<svg width="424" height="110" viewBox="0 0 424 110" fill="none" xmlns="http://www.w3.org/2000/svg">
<path fill-rule="evenodd" clip-rule="evenodd" d="M54.9496 0.25H368.26C398.344 0.25 422.959 24.865 422.959 54.9496C422.959 85.0342 398.344 109.649 368.26 109.649H54.9496C24.865 109.649 0.25 85.0342 0.25 54.9496C0.25 24.865 24.865 0.25 54.9496 0.25Z" fill="black" stroke="black" stroke-width="0.5" stroke-miterlimit="2.6131"/>
<path fill-rule="evenodd" clip-rule="evenodd" d="M60.405 10.6953C72.6267 10.6953 83.6898 15.6502 91.6978 23.6582C99.7059 31.6663 104.659 42.7293 104.659 54.9492C104.659 67.1692 99.7059 78.2322 91.6978 86.2403C83.6898 94.2501 72.6267 99.2032 60.405 99.2032C48.1851 99.2032 37.122 94.2484 29.114 86.2403C21.1059 78.2322 16.1528 67.1692 16.1528 54.9492C16.1528 42.7293 21.1059 31.6663 29.114 23.6582C37.122 15.6502 48.1851 10.6953 60.405 10.6953ZM66.5079 13.7185C68.7279 16.0305 70.6897 19.5772 72.2835 24.0492C72.3909 24.3475 72.4958 24.65 72.5984 24.9566C76.2071 25.6837 79.6283 26.7238 82.7947 28.0328C82.1873 26.9738 81.5458 25.9602 80.8701 24.992C76.989 19.4322 72.0359 15.4344 66.5079 13.7185ZM90.2208 25.1353C94.7847 29.6992 98.3066 35.305 100.399 41.5636C98.1864 38.2769 95.1809 35.3086 91.5545 32.7807C89.8103 31.5637 87.9211 30.4475 85.908 29.448C84.9086 27.4332 83.7924 25.5457 82.5753 23.7997C80.0457 20.1752 77.0774 17.1697 73.7907 14.955C80.051 17.0494 85.6568 20.5714 90.2208 25.1353ZM47.0211 14.955C40.7608 17.0494 35.155 20.5714 30.591 25.1353C26.0271 29.6992 22.5052 35.305 20.4107 41.5636C22.6254 38.2769 25.6309 35.3086 29.2573 32.7807C31.0014 31.5637 32.8907 30.4475 34.9038 29.448C35.9032 27.4332 37.0194 25.5457 38.2365 23.7997C40.7661 20.1752 43.7344 17.1697 47.0211 14.955ZM20.4107 68.335C22.5052 74.5935 26.0271 80.2011 30.591 84.7632C35.155 89.3271 40.7608 92.8491 47.0211 94.9436C43.7344 92.7288 40.7661 89.7234 38.2365 86.0988C37.0194 84.3546 35.9032 82.4654 34.9038 80.4505C32.8907 79.4511 31.0014 78.3348 29.2573 77.1178C25.6309 74.59 22.6254 71.6217 20.4107 68.335ZM73.7907 94.9436C80.051 92.8491 85.6568 89.3271 90.2208 84.7632C94.7847 80.2011 98.3066 74.5935 100.399 68.335C98.1864 71.6217 95.1809 74.59 91.5545 77.1178C89.8103 78.3348 87.9211 79.4511 85.908 80.4505C84.9086 82.4654 83.7924 84.3546 82.5753 86.0988C80.0457 89.7234 77.0774 92.7288 73.7907 94.9436ZM82.7947 81.8657C79.6265 83.1747 76.2071 84.2148 72.5984 84.9419C72.4958 85.2485 72.3909 85.551 72.2835 85.8494C70.6897 90.3213 68.7279 93.868 66.5079 96.1801C72.0359 94.4642 76.989 90.4681 80.8701 84.9065C81.5446 83.9383 82.1862 82.9247 82.7947 81.8657ZM54.3021 96.1801C52.0838 93.868 50.1221 90.3213 48.5282 85.8494C48.4209 85.551 48.316 85.2485 48.2134 84.9419C44.6047 84.2148 41.1853 83.1747 38.0171 81.8657C38.6256 82.9247 39.2672 83.9383 39.9417 84.9065C43.8211 90.4681 48.7759 94.4642 54.3021 96.1801ZM38.0171 28.0328C41.1835 26.7238 44.6047 25.6837 48.2134 24.9566C48.316 24.65 48.4209 24.3475 48.5282 24.0492C50.1221 19.5772 52.0838 16.0305 54.3021 13.7185C48.7759 15.4361 43.8211 19.4322 39.9417 24.992C39.266 25.9602 38.6245 26.9738 38.0171 28.0328ZM33.4886 77.3371C32.1796 74.1707 31.1394 70.7513 30.4142 67.1427C30.1075 67.0389 29.805 66.9339 29.5067 66.8278C25.033 65.234 21.4862 63.2704 19.176 61.0521C20.8919 66.5801 24.8879 71.5332 30.4478 75.4125C31.4171 76.0883 32.4308 76.7298 33.4886 77.3371ZM29.9878 64.7846C29.535 61.9472 29.2732 59.0073 29.2236 55.9947H18.3587C19.1088 59.3257 23.4073 62.4054 29.9878 64.7846ZM29.2236 53.9056C29.2732 50.8913 29.535 47.9513 29.9878 45.1139C23.4073 47.4931 19.1088 50.5729 18.3587 53.9056H29.2236ZM30.4142 42.7558C31.1394 39.1472 32.1796 35.7278 33.4904 32.5614C32.4313 33.1687 31.4171 33.8102 30.4478 34.486C24.8879 38.3653 20.8919 43.3201 19.176 48.8463C21.4862 46.6281 25.033 44.6663 29.5067 43.0707C29.805 42.9646 30.1075 42.8596 30.4142 42.7558ZM87.3232 32.5614C88.6322 35.7278 89.6724 39.1472 90.3976 42.7558C90.7043 42.8596 91.0068 42.9646 91.3051 43.0707C95.7788 44.6663 99.3256 46.6281 101.636 48.8463C99.9199 43.3201 95.9239 38.3653 90.364 34.486C89.3946 33.8102 88.381 33.1687 87.3232 32.5614ZM90.824 45.1139C91.2768 47.9513 91.5386 50.8913 91.5881 53.9056H102.453C101.703 50.5729 97.4045 47.4931 90.824 45.1139ZM91.5881 55.9947C91.5386 59.0073 91.2768 61.9472 90.824 64.7846C97.4045 62.4054 101.703 59.3257 102.453 55.9947H91.5881ZM90.3976 67.1427C89.6724 70.7513 88.6322 74.1707 87.3232 77.3371C88.381 76.7298 89.3946 76.0883 90.364 75.4125C95.9239 71.5332 99.9199 66.5801 101.636 61.0521C99.3256 63.2704 95.7788 65.234 91.3051 66.8278C91.0068 66.9339 90.7043 67.0389 90.3976 67.1427ZM84.3514 78.8956C85.9576 75.5381 87.233 71.8269 88.1139 67.8591C84.4699 68.9276 80.3358 69.7908 75.8533 70.3958C75.2465 74.8783 74.3851 79.0124 73.3166 82.6582C77.2826 81.7772 80.9921 80.5018 84.3514 78.8956ZM88.5809 65.54C89.1275 62.4797 89.4424 59.2832 89.4972 55.9947H76.8545C76.8174 60.2579 76.5626 64.3725 76.1204 68.2536C80.7215 67.6062 84.9298 66.6827 88.5809 65.54ZM89.4972 53.9056C89.4424 50.6153 89.1275 47.4188 88.5809 44.3585C84.9298 43.2158 80.7215 42.2924 76.1204 41.6449C76.5626 45.526 76.8174 49.6406 76.8545 53.9056H89.4972ZM88.1139 42.0394C84.4681 40.971 80.3341 40.1077 75.8515 39.5028C75.2448 35.0202 74.3833 30.8862 73.3148 27.2404C77.2808 28.1213 80.9921 29.3985 84.3496 31.0029C85.9558 34.3622 87.233 38.0716 88.1139 42.0394ZM36.4587 31.0029C34.8542 34.3622 33.577 38.0716 32.6961 42.0394C36.3401 40.971 40.476 40.1077 44.9585 39.5028C45.5635 35.0202 46.4267 30.8862 47.4934 27.2404C43.5274 28.1213 39.8179 29.3985 36.4587 31.0029ZM32.2309 44.3585C31.6825 47.4188 31.3676 50.6153 31.3128 53.9056H43.9573C43.9926 49.6406 44.2474 45.526 44.6914 41.6449C40.0886 42.2924 35.882 43.2158 32.2309 44.3585ZM31.3128 55.9947C31.3676 59.2832 31.6825 62.4797 32.2309 65.54C35.882 66.6827 40.0886 67.6062 44.6914 68.2536C44.2474 64.3725 43.9926 60.2579 43.9573 55.9947H31.3128ZM32.6961 67.8591C33.577 71.8269 34.8525 75.5381 36.4587 78.8956C39.8179 80.5018 43.5274 81.7772 47.4934 82.6582C46.425 79.0124 45.5635 74.8783 44.9567 70.3958C40.4742 69.7908 36.3401 68.9276 32.6961 67.8591ZM70.2386 85.3665C67.403 85.8211 64.463 86.0811 61.4487 86.1306V96.9956C64.7796 96.2455 67.8612 91.947 70.2386 85.3665ZM59.3596 86.1306C56.3453 86.0811 53.4053 85.8211 50.5696 85.3665C52.9471 91.947 56.0286 96.2455 59.3596 96.9956V86.1306ZM50.5696 24.5321C53.4053 24.0792 56.3453 23.8174 59.3596 23.7679V12.903C56.0286 13.653 52.9471 17.9516 50.5696 24.5321ZM61.4487 23.7679V12.903C64.7796 13.653 67.8612 17.9516 70.2386 24.5321C67.403 24.0792 64.463 23.8174 61.4487 23.7679ZM70.994 26.7751C72.1367 30.4263 73.0601 34.6328 73.7075 39.2356C69.8265 38.7916 65.7119 38.5369 61.4487 38.5015V25.857C64.7389 25.9119 67.9337 26.2285 70.994 26.7751ZM59.3596 25.857C56.0693 25.9119 52.8746 26.2285 49.8143 26.7751C48.6715 30.4263 47.7481 34.6328 47.1007 39.2356C50.9818 38.7916 55.0964 38.5369 59.3596 38.5015V25.857ZM49.8143 83.1234C52.8746 83.67 56.0693 83.9849 59.3596 84.0415V71.397C55.0964 71.3616 50.9818 71.1051 47.1007 70.6629C47.7481 75.2639 48.6715 79.4723 49.8143 83.1234ZM61.4487 84.0415C64.7389 83.9849 67.9337 83.67 70.994 83.1234C72.1367 79.4723 73.0601 75.2639 73.7075 70.6629C69.8265 71.1051 65.7119 71.3616 61.4487 71.397V84.0415ZM46.0446 53.9038H59.3596V40.5906C54.9849 40.6278 50.7748 40.8985 46.823 41.369C46.3524 45.3191 46.0836 49.5292 46.0446 53.9038ZM61.4487 53.9038H74.7636C74.7265 49.5292 74.4558 45.3191 73.9853 41.369C70.0334 40.8985 65.8251 40.6278 61.4487 40.5906V53.9038ZM74.7636 55.993H61.4487V69.3079C65.8251 69.269 70.0334 68.9983 73.9853 68.5295C74.4558 64.5777 74.7265 60.3676 74.7636 55.993ZM59.3596 55.993H46.0446C46.0836 60.3676 46.3524 64.5777 46.823 68.5295C50.7748 68.9983 54.9849 69.269 59.3596 69.3079V55.993Z" fill="white"/>
<path fill-rule="evenodd" clip-rule="evenodd" d="M260.423 77.9512H347.431V80.0403H260.423V77.9512Z" fill="white"/>
</svg>
